<svg xmlns="http://www.w3.org/2000/svg" width="48" height="48" viewBox="0 0 48 48" fill="none">
  <defs>
    <linearGradient id="logoGradient" x1="0%" y1="0%" x2="100%" y2="100%">
      <stop offset="0%" style="stop-color:#2563eb;stop-opacity:1" />
      <stop offset="50%" style="stop-color:#7c3aed;stop-opacity:1" />
      <stop offset="100%" style="stop-color:#db2777;stop-opacity:1" />
    </linearGradient>
  </defs>
  
  <!-- Background circle -->
  <circle cx="24" cy="24" r="22" fill="url(#logoGradient)" stroke="none"/>
  
  <!-- Sparkles icon -->
  <g transform="translate(12, 12)">
    <path d="M9.937 15.5A2 2 0 0 0 8.5 14.063l-6.135-1.582a.5.5 0 0 1 0-.962L8.5 9.936A2 2 0 0 0 9.937 8.5l1.582-6.135a.5.5 0 0 1 .963 0L14.063 8.5A2 2 0 0 0 15.5 9.937l6.135 1.581a.5.5 0 0 1 0 .964L15.5 14.063a2 2 0 0 0-1.437 1.437l-1.582 6.135a.5.5 0 0 1-.963 0z" fill="white" stroke="none"/>
    <path d="M20 3v4" stroke="white" stroke-width="2" stroke-linecap="round"/>
    <path d="M22 5h-4" stroke="white" stroke-width="2" stroke-linecap="round"/>
    <path d="M4 17v2" stroke="white" stroke-width="2" stroke-linecap="round"/>
    <path d="M5 18H3" stroke="white" stroke-width="2" stroke-linecap="round"/>
  </g>
</svg>